<svg width="14" height="13" viewBox="0 0 14 13" fill="none" xmlns="http://www.w3.org/2000/svg">
<path id="Vector" d="M6.51353 12.4741L5.56906 11.6538C4.47262 10.6967 3.56616 9.87109 2.84967 9.17694C2.13318 8.4828 1.56325 7.85954 1.13987 7.30717C0.716488 6.75522 0.420774 6.24786 0.252725 5.7851C0.0846759 5.32233 0.000434235 4.84905 0 4.36526C0 3.37663 0.34196 2.55101 1.02588 1.88842C1.7098 1.22583 2.56199 0.894531 3.58244 0.894531C4.14694 0.894531 4.68431 1.01022 5.19454 1.2416C5.70476 1.47299 6.14443 1.79902 6.51353 2.21972C6.88263 1.79902 7.32229 1.47299 7.83251 1.2416C8.34274 1.01022 8.88011 0.894531 9.44461 0.894531C10.4651 0.894531 11.3173 1.22583 12.0012 1.88842C12.6851 2.55101 13.0271 3.37663 13.0271 4.36526C13.0271 4.84905 12.943 5.32233 12.775 5.7851C12.6069 6.24786 12.311 6.75522 11.8872 7.30717C11.4638 7.85954 10.8939 8.4828 10.1774 9.17694C9.4609 9.87109 8.55443 10.6967 7.45799 11.6538L6.51353 12.4741ZM6.51353 10.7703C7.55569 9.86583 8.4133 9.09028 9.08637 8.44367C9.75943 7.79707 10.2914 7.23439 10.6822 6.75564C11.073 6.27689 11.3444 5.85073 11.4964 5.47715C11.6484 5.10357 11.7243 4.73294 11.7243 4.36526C11.7243 3.73422 11.5072 3.20835 11.073 2.78765C10.6388 2.36696 10.096 2.15661 9.44461 2.15661C8.93439 2.15661 8.46216 2.29586 8.02792 2.57436C7.59369 2.85286 7.29515 3.20793 7.13231 3.63956H5.89474C5.7319 3.20835 5.43337 2.85349 4.99913 2.57499C4.5649 2.29649 4.09267 2.15703 3.58244 2.15661C2.93109 2.15661 2.38829 2.36696 1.95406 2.78765C1.51982 3.20835 1.30271 3.73422 1.30271 4.36526C1.30271 4.73336 1.3787 5.10421 1.53068 5.47778C1.68266 5.85136 1.95406 6.27731 2.34487 6.75564C2.73568 7.23397 3.26762 7.79665 3.94068 8.44367C4.61375 9.0907 5.47136 9.86625 6.51353 10.7703Z" fill="black"/>
</svg>
