<svg width="10" height="9" viewBox="0 0 10 9" fill="none" xmlns="http://www.w3.org/2000/svg">
<path id="Vector" d="M5.56643 0.637844C5.70038 0.503936 5.88203 0.428711 6.07143 0.428711C6.26083 0.428711 6.44248 0.503936 6.57643 0.637844L9.79071 3.85213C9.92462 3.98608 9.99985 4.16773 9.99985 4.35713C9.99985 4.54653 9.92462 4.72818 9.79071 4.86213L6.57643 8.07642C6.44171 8.20653 6.26128 8.27852 6.074 8.2769C5.88672 8.27527 5.70756 8.20015 5.57513 8.06771C5.4427 7.93528 5.36757 7.75613 5.36595 7.56884C5.36432 7.38156 5.43632 7.20113 5.56643 7.06642L7.5 5.07142H0.714286C0.524845 5.07142 0.343164 4.99616 0.209209 4.86221C0.0752549 4.72825 0 4.54657 0 4.35713C0 4.16769 0.0752549 3.98601 0.209209 3.85205C0.343164 3.7181 0.524845 3.64284 0.714286 3.64284H7.5L5.56643 1.64784C5.43252 1.5139 5.3573 1.33225 5.3573 1.14284C5.3573 0.953441 5.43252 0.771792 5.56643 0.637844Z" fill="white"/>
</svg>
